<?xml version="1.0" encoding="UTF-8" standalone="no"?>
<!DOCTYPE svg PUBLIC "-//W3C//DTD SVG 1.1//EN"
 "http://www.w3.org/Graphics/SVG/1.1/DTD/svg11.dtd">
<!-- Generated by graphviz version 5.0.0 (20220707.1540)
 -->
<!-- Title: dependencies Pages: 1 -->
<svg width="658pt" height="247pt"
 viewBox="0.00 0.00 658.00 246.80" xmlns="http://www.w3.org/2000/svg" xmlns:xlink="http://www.w3.org/1999/xlink">
<g id="graph0" class="graph" transform="scale(1 1) rotate(0) translate(4 242.8)">
<title>dependencies</title>
<polygon fill="white" stroke="transparent" points="-4,4 -4,-242.8 654,-242.8 654,4 -4,4"/>
<text text-anchor="middle" x="325" y="-8.2" font-family="sans-serif" font-size="14.00">dependencies</text>
<g id="clust1" class="cluster">
<title>cluster_AppModule</title>
<polygon fill="none" stroke="black" stroke-dasharray="1,5" points="8,-32.8 8,-230.8 642,-230.8 642,-32.8 8,-32.8"/>
</g>
<g id="clust2" class="cluster">
<title>cluster_AppModule_declarations</title>
<polygon fill="none" stroke="black" points="168,-40.8 168,-92.8 634,-92.8 634,-40.8 168,-40.8"/>
</g>
<g id="clust6" class="cluster">
<title>cluster_AppModule_imports</title>
<polygon fill="none" stroke="black" points="16,-40.8 16,-92.8 160,-92.8 160,-40.8 16,-40.8"/>
</g>
<g id="clust8" class="cluster">
<title>cluster_AppModule_bootstrap</title>
<polygon fill="none" stroke="black" points="261,-170.8 261,-222.8 385,-222.8 385,-170.8 261,-170.8"/>
</g>
<!-- AppComponent -->
<g id="node1" class="node">
<title>AppComponent</title>
<polygon fill="#ffffb3" stroke="black" points="625.94,-84.8 520.06,-84.8 520.06,-48.8 625.94,-48.8 625.94,-84.8"/>
<text text-anchor="middle" x="573" y="-62.6" font-family="Times,serif" font-size="14.00">AppComponent</text>
</g>
<!-- AppModule -->
<g id="node4" class="node">
<title>AppModule</title>
<polygon fill="#8dd3c7" stroke="black" points="364.66,-149.8 361.66,-153.8 340.66,-153.8 337.66,-149.8 281.34,-149.8 281.34,-113.8 364.66,-113.8 364.66,-149.8"/>
<text text-anchor="middle" x="323" y="-127.6" font-family="Times,serif" font-size="14.00">AppModule</text>
</g>
<!-- AppComponent&#45;&gt;AppModule -->
<g id="edge1" class="edge">
<title>AppComponent&#45;&gt;AppModule</title>
<path fill="none" stroke="black" d="M573,-84.91C573,-104.14 573,-131.8 573,-131.8 573,-131.8 374.84,-131.8 374.84,-131.8"/>
<polygon fill="black" stroke="black" points="374.84,-128.3 364.84,-131.8 374.84,-135.3 374.84,-128.3"/>
</g>
<!-- ConfigurationPageComponent -->
<g id="node2" class="node">
<title>ConfigurationPageComponent</title>
<polygon fill="#ffffb3" stroke="black" points="502.59,-84.8 315.41,-84.8 315.41,-48.8 502.59,-48.8 502.59,-84.8"/>
<text text-anchor="middle" x="409" y="-62.6" font-family="Times,serif" font-size="14.00">ConfigurationPageComponent</text>
</g>
<!-- ConfigurationPageComponent&#45;&gt;AppModule -->
<g id="edge2" class="edge">
<title>ConfigurationPageComponent&#45;&gt;AppModule</title>
<path fill="none" stroke="black" d="M340.14,-84.91C340.14,-84.91 340.14,-103.79 340.14,-103.79"/>
<polygon fill="black" stroke="black" points="336.64,-103.79 340.14,-113.79 343.64,-103.79 336.64,-103.79"/>
</g>
<!-- HeaderComponent -->
<g id="node3" class="node">
<title>HeaderComponent</title>
<polygon fill="#ffffb3" stroke="black" points="297.75,-84.8 176.25,-84.8 176.25,-48.8 297.75,-48.8 297.75,-84.8"/>
<text text-anchor="middle" x="237" y="-62.6" font-family="Times,serif" font-size="14.00">HeaderComponent</text>
</g>
<!-- HeaderComponent&#45;&gt;AppModule -->
<g id="edge3" class="edge">
<title>HeaderComponent&#45;&gt;AppModule</title>
<path fill="none" stroke="black" d="M289.52,-84.91C289.52,-84.91 289.52,-103.79 289.52,-103.79"/>
<polygon fill="black" stroke="black" points="286.02,-103.79 289.52,-113.79 293.02,-103.79 286.02,-103.79"/>
</g>
<!-- AppComponent  -->
<g id="node6" class="node">
<title>AppComponent </title>
<polygon fill="#80b1d3" stroke="black" points="377.44,-214.8 268.56,-214.8 268.56,-178.8 377.44,-178.8 377.44,-214.8"/>
<text text-anchor="middle" x="323" y="-192.6" font-family="Times,serif" font-size="14.00">AppComponent </text>
</g>
<!-- AppModule&#45;&gt;AppComponent  -->
<g id="edge5" class="edge">
<title>AppModule&#45;&gt;AppComponent </title>
<path fill="none" stroke="black" stroke-dasharray="1,5" d="M323,-149.91C323,-149.91 323,-168.79 323,-168.79"/>
<polygon fill="black" stroke="black" points="319.5,-168.79 323,-178.79 326.5,-168.79 319.5,-168.79"/>
</g>
<!-- AppRoutingModule -->
<g id="node5" class="node">
<title>AppRoutingModule</title>
<polygon fill="#8dd3c7" stroke="black" points="152.28,-84.8 149.28,-88.8 128.28,-88.8 125.28,-84.8 23.72,-84.8 23.72,-48.8 152.28,-48.8 152.28,-84.8"/>
<text text-anchor="middle" x="88" y="-62.6" font-family="Times,serif" font-size="14.00">AppRoutingModule</text>
</g>
<!-- AppRoutingModule&#45;&gt;AppModule -->
<g id="edge4" class="edge">
<title>AppRoutingModule&#45;&gt;AppModule</title>
<path fill="none" stroke="black" d="M88,-84.91C88,-104.14 88,-131.8 88,-131.8 88,-131.8 271.26,-131.8 271.26,-131.8"/>
<polygon fill="black" stroke="black" points="271.26,-135.3 281.26,-131.8 271.26,-128.3 271.26,-135.3"/>
</g>
</g>
</svg>
